<?xml version="1.0" encoding="utf-8"?>
<!-- Generator: Adobe Illustrator 19.2.1, SVG Export Plug-In . SVG Version: 6.00 Build 0)  -->
<svg version="1.1" id="Layer_1" xmlns="http://www.w3.org/2000/svg" xmlns:xlink="http://www.w3.org/1999/xlink" x="0px" y="0px"
	 viewBox="0 0 216 164" style="enable-background:new 0 0 216 164;" xml:space="preserve">
<style type="text/css">
	.st0{fill:#ECECEC;}
	.st1{fill:#FAFAFA;}
	.st2{fill:#F7F7F7;}
	.st3{fill:#E5E5E5;}
	.st4{fill:#E8E8E8;}
	.st5{fill:#DADADA;}
</style>
<g>
	<path class="st0" d="M180.8,111c-3.1,9.8-8.8,18.2-13.8,27c-2.8,4.9-6,9.6-9,14.4c-1.2,2-2.3,2.3-4.4,0.9
		c-14.6-9.6-28.5-20.3-41.6-31.9c-1.7-1.5-2.2-3.1-2.2-5.3c0-22.5,0.1-45,0-67.5c0-2.4,0.9-4,2.7-5.6c14.4-12.7,29.6-24.3,45.9-34.5
		c1.6-1,3.1-1.7,5.1-1.3c14.6,2.6,29,5.9,43.2,10.3c2.3,0.7,3.3,1.5,2.8,4.1c-2.5,14.4-5.8,28.7-10.1,42.7c-0.4,1.4-0.7,3-2.3,3.7
		c-13.2,5.4-27.5,6.3-41.3,9.2c-7.7,1.6-15.5,1.5-23.2,3.2c-1.1,0.3-2.3,0.3-3.1,1.3c-0.4,1.3,0.8,1.3,1.4,1.6
		c13.8,7.2,27.6,14.5,41.6,21.2C175.9,106.3,178.7,108.1,180.8,111z"/>
	<path class="st1" d="M17.8,68.2c-1.9-0.7-1.9-2.6-2.4-4.1C11.2,50.3,8,36.4,5.5,22.3c-0.6-3.1,0.4-4,3.1-4.8
		c14-4.3,28.2-7.6,42.6-10.1c2-0.4,3.5,0.2,5.1,1.2c16.4,10.3,31.7,22,46.2,34.8c1.8,1.6,2.4,3.3,2.4,5.6c-0.1,22.3-0.1,44.6,0,66.9
		c0,2.3-0.5,4.1-2.3,5.7c-13,11.5-26.6,22.1-41.1,31.6c-2,1.3-3.2,1.7-4.7-0.7C48.5,139.8,41,126.7,34.4,113
		c-0.3-0.6-0.2-1.3-0.3-1.9c2.1-2.9,4.9-4.8,8.2-6.3C56.9,98,70.9,89.9,85.4,83c0.6-0.3,0.6-0.7,0.3-1.2c-2.7-1.6-5.7-2-8.6-2.2
		c-15.9-1.2-31.4-4.9-47.1-7.5C25.8,71.4,21.8,69.7,17.8,68.2z"/>
	<path class="st2" d="M90.3,80.7c0.8,0,1.8,0.1,1.8,0.1c0.3,1.3-1,1.6-1.8,2c-6.9,3.6-13.8,7.4-20.7,10.9
		C57.8,99.6,46,105.3,34.2,111c2.5-7.9,5-15.8,7.4-23.7c0.5-1.7,0.8-3.5,1.2-5.3c1.7-2.9,4.6-2.3,7.1-2.3
		c12.5,0.1,25.1-1.3,37.6,0.7C88.3,80.6,89.5,81.2,90.3,80.7z"/>
	<path class="st3" d="M180.8,111c-12.9-5.7-25.4-12.3-37.9-18.7c-5.8-3-11.5-6-17.2-9c-1-0.5-2.4-1-1.8-2.5c0,0,1.2-0.1,1.9-0.3
		c1.8,1.1,3.8-0.3,5.6-0.5c11.5-1.4,23.1,0,34.6-0.2c2.2,0,4.8-0.3,6.1,2.3C175,91.7,177.9,101.4,180.8,111z"/>
	<path class="st4" d="M92,80.8L85.6,81c-14.3,0.1-28.5,1.6-42.8,1.1c-8.7-4-17-8.8-25.1-13.9C29,69.1,40,71.7,51.1,73.5
		C64.1,75.6,79.1,78.7,92,80.8z"/>
	<path class="st5" d="M172.1,82c-14,0.6-27.9-1-41.8-1.1c-1.5,0-6.4-0.1-6.4-0.1s47-8.6,69.4-12.4c1.3-0.2,2.6-0.2,4-0.3
		C189.1,73.3,180.9,78.1,172.1,82z"/>
</g>
</svg>
